<svg width="30" height="30" viewBox="0 0 30 30" fill="none" xmlns="http://www.w3.org/2000/svg">
<path fill-rule="evenodd" clip-rule="evenodd" d="M9.24901 1.49751C9.66735 0.613978 10.5683 0 11.6126 0H17.5888C18.6317 0 19.5326 0.613978 19.9524 1.49751C20.9728 1.50649 21.7692 1.55291 22.4803 1.83145C23.3293 2.1643 24.0676 2.72997 24.6108 3.46373C25.1592 4.20201 25.4161 5.15142 25.7702 6.45575L25.8255 6.65941L26.707 9.90451C27.2947 10.2017 27.8099 10.6251 28.216 11.1444C29.1453 12.338 29.3096 13.7591 29.1453 15.3884C28.9839 16.9698 28.4879 18.9614 27.8664 21.4548L27.826 21.612C27.4331 23.1889 27.1134 24.4693 26.7354 25.4681C26.338 26.5104 25.836 27.3639 25.0068 28.0124C24.1791 28.6608 23.2303 28.9408 22.1262 29.0756C21.067 29.2014 19.7507 29.2014 18.1297 29.2014H11.0718C9.45071 29.2014 8.13296 29.2014 7.07517 29.0741C5.96957 28.9423 5.02234 28.6608 4.19314 28.0109C3.36544 27.3639 2.86344 26.5104 2.46602 25.4681C2.08653 24.4693 1.7683 23.1889 1.37536 21.612L1.33502 21.4548C0.713498 18.9614 0.215979 16.9698 0.0561158 15.3899C-0.10823 13.7576 0.0561156 12.338 0.983921 11.1444C1.40674 10.6024 1.91322 10.201 2.49291 9.90451L3.3744 6.65941L3.43118 6.45575C3.78527 5.15142 4.04224 4.202 4.59056 3.46224C5.13399 2.72903 5.8723 2.16389 6.72108 1.83145C7.43225 1.55291 8.22708 1.50499 9.24901 1.49751ZM9.25051 3.74826C8.26144 3.75874 7.86552 3.79618 7.53683 3.92497C7.0796 4.10419 6.68195 4.40882 6.3894 4.804C6.12645 5.15891 5.97106 5.65459 5.53779 7.25243L5.00889 9.1932C6.55972 8.98504 8.56175 8.98504 11.0478 8.98504H18.1521C20.6397 8.98504 22.6417 8.98504 24.191 9.1932L23.6636 7.25093C23.2288 5.65309 23.075 5.15741 22.812 4.8025C22.5195 4.40733 22.1218 4.10269 21.6646 3.92347C21.3359 3.79468 20.9385 3.75725 19.9494 3.74676C19.7371 4.19401 19.4026 4.57178 18.9848 4.83629C18.567 5.1008 18.083 5.24122 17.5888 5.24127H11.6126C11.1184 5.24122 10.6344 5.1008 10.2166 4.83629C9.79881 4.57178 9.46435 4.19401 9.252 3.74676M11.6126 2.24626C11.5135 2.24626 11.4185 2.2857 11.3485 2.35591C11.2784 2.42612 11.2391 2.52135 11.2391 2.62064C11.2391 2.71993 11.2784 2.81515 11.3485 2.88536C11.4185 2.95557 11.5135 2.99501 11.6126 2.99501H17.5888C17.6879 2.99501 17.7829 2.95557 17.8529 2.88536C17.923 2.81515 17.9623 2.71993 17.9623 2.62064C17.9623 2.52135 17.923 2.42612 17.8529 2.35591C17.7829 2.2857 17.6879 2.24626 17.5888 2.24626H11.6126ZM5.18818 11.435C3.82859 11.6326 3.16972 11.992 2.75288 12.5281C2.33454 13.0628 2.14779 13.789 2.28673 15.1608C2.42867 16.5624 2.88435 18.3954 3.53277 21.001C3.94812 22.6603 4.23498 23.8104 4.56367 24.6699C4.87742 25.4996 5.18669 25.9383 5.57514 26.2423C5.9621 26.5448 6.46111 26.738 7.3426 26.8443C8.25397 26.9536 9.43427 26.9551 11.1435 26.9551H18.0609C19.7686 26.9551 20.9519 26.9536 21.8618 26.8443C22.7433 26.7395 23.2423 26.5448 23.6293 26.2423C24.0177 25.9383 24.3255 25.4996 24.6422 24.6699C24.9679 23.8104 25.2563 22.6603 25.6701 21.001C26.32 18.3954 26.7757 16.5624 26.9162 15.1608C27.0566 13.789 26.8684 13.0613 26.4515 12.5266C26.0347 11.992 25.3758 11.6326 24.0147 11.435C22.6253 11.2343 20.7398 11.2313 18.0609 11.2313H11.1435C8.46463 11.2313 6.57914 11.2343 5.18968 11.435" fill="black"/>
</svg>
