<svg width="13" height="13" viewBox="0 0 13 13" fill="none" xmlns="http://www.w3.org/2000/svg">
<path fill-rule="evenodd" clip-rule="evenodd" d="M3.98167 0.644672C4.16176 0.264315 4.5496 0 4.99919 0H7.57192C8.02086 0 8.4087 0.264315 8.58944 0.644672C9.02873 0.64854 9.37155 0.668525 9.67771 0.788434C10.0432 0.931726 10.361 1.17524 10.5949 1.49113C10.8309 1.80895 10.9416 2.21767 11.094 2.77918L11.1178 2.86686L11.4973 4.26386C11.7503 4.39181 11.9721 4.57406 12.1469 4.79765C12.547 5.31145 12.6177 5.92325 12.547 6.62465C12.4775 7.30542 12.2639 8.16283 11.9964 9.23621L11.979 9.3039C11.8099 9.98274 11.6722 10.5339 11.5095 10.9639C11.3384 11.4126 11.1223 11.7801 10.7653 12.0592C10.409 12.3384 10.0006 12.4589 9.52527 12.5169C9.06925 12.5711 8.50261 12.5711 7.80475 12.5711H4.76635C4.0685 12.5711 3.50121 12.5711 3.04584 12.5163C2.56988 12.4596 2.1621 12.3384 1.80513 12.0586C1.44881 11.7801 1.2327 11.4126 1.06161 10.9639C0.898245 10.5339 0.761246 9.98274 0.592089 9.3039L0.574723 9.23621C0.307159 8.16283 0.0929784 7.30542 0.0241577 6.62529C-0.0465926 5.9226 0.0241576 5.31145 0.423575 4.79765C0.605596 4.56428 0.823635 4.3915 1.07319 4.26386L1.45267 2.86686L1.47711 2.77918C1.62954 2.21767 1.74017 1.80895 1.97622 1.49048C2.21017 1.17484 2.52801 0.931549 2.8934 0.788434C3.19956 0.668525 3.54173 0.647895 3.98167 0.644672ZM3.98231 1.61361C3.55652 1.61813 3.38608 1.63424 3.24458 1.68968C3.04774 1.76684 2.87656 1.89798 2.75061 2.06811C2.63741 2.22089 2.57052 2.43428 2.384 3.12215L2.15631 3.95764C2.82394 3.86803 3.6858 3.86803 4.75606 3.86803H7.8144C8.8853 3.86803 9.74717 3.86803 10.4142 3.95764L10.1871 3.1215C9.99994 2.43364 9.93369 2.22025 9.82049 2.06746C9.69455 1.89734 9.52336 1.7662 9.32653 1.68904C9.18503 1.6336 9.01394 1.61748 8.58815 1.61297C8.49674 1.80551 8.35275 1.96814 8.17289 2.08201C7.99303 2.19588 7.78466 2.25633 7.57192 2.25635H4.99919C4.78645 2.25633 4.57808 2.19588 4.39821 2.08201C4.21835 1.96814 4.07437 1.80551 3.98296 1.61297M4.99919 0.967008C4.95654 0.967008 4.91564 0.983988 4.88549 1.01421C4.85533 1.04444 4.83839 1.08543 4.83839 1.12818C4.83839 1.17092 4.85533 1.21191 4.88549 1.24214C4.91564 1.27236 4.95654 1.28934 4.99919 1.28934H7.57192C7.61457 1.28934 7.65547 1.27236 7.68562 1.24214C7.71578 1.21191 7.73272 1.17092 7.73272 1.12818C7.73272 1.08543 7.71578 1.04444 7.68562 1.01421C7.65547 0.983988 7.61457 0.967008 7.57192 0.967008H4.99919ZM2.23349 4.92271C1.6482 5.00781 1.36455 5.16253 1.1851 5.39332C1.00501 5.62347 0.924615 5.93614 0.984431 6.52666C1.04553 7.13007 1.2417 7.91915 1.52085 9.04088C1.69965 9.75517 1.82314 10.2503 1.96464 10.6203C2.09971 10.9775 2.23285 11.1664 2.40008 11.2972C2.56666 11.4275 2.78149 11.5106 3.16097 11.5564C3.55331 11.6034 4.06142 11.6041 4.79723 11.6041H7.77517C8.51033 11.6041 9.01973 11.6034 9.41143 11.5564C9.79091 11.5113 10.0057 11.4275 10.1723 11.2972C10.3395 11.1664 10.472 10.9775 10.6084 10.6203C10.7486 10.2503 10.8727 9.75517 11.0509 9.04088C11.3307 7.91915 11.5269 7.13007 11.5873 6.52666C11.6478 5.93614 11.5667 5.62283 11.3873 5.39268C11.2078 5.16253 10.9242 5.00781 10.3383 4.92271C9.7401 4.83633 8.9284 4.83504 7.77517 4.83504H4.79723C3.644 4.83504 2.8323 4.83633 2.23414 4.92271" fill="white"/>
</svg>
