<svg width="32" height="32" viewBox="0 0 32 32" fill="none" xmlns="http://www.w3.org/2000/svg">
<path d="M30.5999 12.5C28.9999 5.9 23.0999 1 15.9999 1H15.4999V12.5H30.5999ZM8.4999 3C4.9999 5.05 2.3999 8.45 1.3999 12.5H8.4999V3ZM1.3999 19.5C2.3999 23.55 4.9999 26.95 8.4999 29V19.5H1.3999ZM15.4999 31H15.9999C23.0999 31 28.9999 26.1 30.5999 19.5H15.4999V31Z" fill="#428BC1"/>
<path d="M30.6 12.5H15.5V1C12.95 1.1 10.55 1.8 8.5 3V12.5H1.4C1.15 13.6 1 14.8 1 16C1 17.2 1.15 18.4 1.4 19.5H8.5V29C10.55 30.2 12.95 30.9 15.5 31V19.5H30.6C30.85 18.4 31 17.2 31 16C31 14.8 30.85 13.6 30.6 12.5Z" fill="#FFE62E"/>
</svg>
