<svg width="48" height="44" viewBox="0 0 48 44" fill="none" xmlns="http://www.w3.org/2000/svg">
<rect x="0.304054" y="0.304054" width="46.8243" height="43.1757" rx="21.5878" stroke="black" stroke-width="0.608108"/>
<path d="M23.7165 23.4862H15.8275V24.801H23.7165V23.4862ZM31.6054 23.4862H23.7165V24.801H31.6054V23.4862ZM34.8925 20.1991C34.8925 20.6308 34.8075 21.0582 34.6423 21.457C34.4771 21.8558 34.235 22.2182 33.9297 22.5234C33.6245 22.8286 33.2621 23.0708 32.8633 23.236C32.4645 23.4012 32.0371 23.4862 31.6054 23.4862V24.801C32.8259 24.801 33.9964 24.3162 34.8595 23.4531C35.7225 22.5901 36.2073 21.4196 36.2073 20.1991H34.8925ZM31.6054 16.912C32.0371 16.912 32.4645 16.9971 32.8633 17.1622C33.2621 17.3274 33.6245 17.5696 33.9297 17.8748C34.235 18.18 34.4771 18.5424 34.6423 18.9412C34.8075 19.34 34.8925 19.7674 34.8925 20.1991H36.2073C36.2073 18.9786 35.7225 17.8081 34.8595 16.9451C33.9964 16.082 32.8259 15.5972 31.6054 15.5972V16.912ZM30.3169 14.6111C29.7462 13.338 28.8193 12.2572 27.6482 11.499C26.4771 10.7408 25.1116 10.3376 23.7165 10.3379V11.6527C24.8582 11.6524 25.9757 11.9824 26.9341 12.603C27.8925 13.2236 28.6509 14.1082 29.1178 15.1502L30.3169 14.6111ZM23.7165 10.3379C22.3213 10.3376 20.9558 10.7408 19.7847 11.499C18.6136 12.2572 17.6868 13.338 17.116 14.6111L18.3151 15.1502C18.782 14.1082 19.5404 13.2236 20.4988 12.603C21.4572 11.9824 22.5747 11.6524 23.7165 11.6527V10.3379ZM15.8275 15.5972C14.607 15.5972 13.4365 16.082 12.5735 16.9451C11.7104 17.8081 11.2256 18.9786 11.2256 20.1991H12.5404C12.5404 19.3273 12.8867 18.4912 13.5032 17.8748C14.1196 17.2583 14.9557 16.912 15.8275 16.912V15.5972ZM11.2256 20.1991C11.2256 21.4196 11.7104 22.5901 12.5735 23.4531C13.4365 24.3162 14.607 24.801 15.8275 24.801V23.4862C14.9557 23.4862 14.1196 23.1399 13.5032 22.5234C12.8867 21.907 12.5404 21.0709 12.5404 20.1991H11.2256ZM17.116 14.6111C16.8412 15.2212 16.3337 15.5972 15.8275 15.5972V16.912C17.0043 16.912 17.901 16.0745 18.3151 15.1502L17.116 14.6111ZM31.6054 15.5972C31.0992 15.5972 30.5917 15.2212 30.3169 14.6111L29.1178 15.1502C29.5333 16.0745 30.4287 16.912 31.6054 16.912V15.5972Z" fill="black"/>
<path d="M23.7157 29.2548V26.6251M30.2899 30.5696V26.6251M17.1416 31.8844V26.6251" stroke="black" stroke-width="1.31483" stroke-linecap="round"/>
</svg>
