<svg width="48" height="19" viewBox="0 0 48 19" fill="none" xmlns="http://www.w3.org/2000/svg">
<path d="M4.51178 13.4146H-7.57308e-05V11.9933H4.51178V13.4146ZM14.3896 5.86182V7.08482H9.06789L8.72083 11.7785H8.83652C9.15604 11.3267 9.5031 10.9907 9.87771 10.7703C10.2523 10.55 10.7371 10.4398 11.3321 10.4398C12.0262 10.4398 12.6432 10.594 13.1831 10.9025C13.734 11.2 14.1637 11.6352 14.4722 12.2082C14.7807 12.7701 14.935 13.4312 14.935 14.1914C14.935 14.9737 14.7697 15.6678 14.4392 16.2738C14.1196 16.8798 13.6514 17.3536 13.0344 17.6951C12.4284 18.0257 11.7122 18.1909 10.8859 18.1909C9.98239 18.1909 9.23867 18.0091 8.65472 17.6455C8.07077 17.2709 7.55292 16.7696 7.10119 16.1416L8.14239 15.3483C8.49496 15.8882 8.86957 16.2903 9.26622 16.5548C9.66286 16.8192 10.2027 16.9514 10.8859 16.9514C11.7232 16.9514 12.3623 16.731 12.803 16.2903C13.2437 15.8386 13.4641 15.2051 13.4641 14.3897V14.1914C13.4641 13.3651 13.2437 12.7315 12.803 12.2908C12.3733 11.8501 11.7342 11.6297 10.8859 11.6297C10.368 11.6297 9.94382 11.7234 9.61328 11.9107C9.29376 12.087 8.98526 12.3459 8.68777 12.6875L7.51436 12.5057L7.94406 5.86182H14.3896ZM21.4237 18.1909C18.6582 18.1909 17.2754 16.103 17.2754 11.9272C17.2754 7.74038 18.6582 5.64697 21.4237 5.64697C24.1892 5.64697 25.572 7.74038 25.572 11.9272C25.572 16.103 24.1892 18.1909 21.4237 18.1909ZM21.4237 16.9845C22.3382 16.9845 23.0158 16.6209 23.4565 15.8937C23.8972 15.1665 24.1176 14.1639 24.1176 12.8858V10.9521C24.1176 9.67404 23.8972 8.6714 23.4565 7.94422C23.0158 7.21703 22.3382 6.85344 21.4237 6.85344C20.5092 6.85344 19.8316 7.21703 19.3909 7.94422C18.9502 8.6714 18.7298 9.67404 18.7298 10.9521V12.8858C18.7298 14.1639 18.9502 15.1665 19.3909 15.8937C19.8316 16.6209 20.5092 16.9845 21.4237 16.9845ZM32.5529 8.64007C31.7689 8.64007 31.0569 8.45607 30.4169 8.08807C29.7769 7.70407 29.2649 7.18407 28.8809 6.52807C28.5129 5.87207 28.3289 5.13607 28.3289 4.32007C28.3289 3.50407 28.5129 2.76807 28.8809 2.11207C29.2649 1.45607 29.7769 0.944074 30.4169 0.576074C31.0569 0.192074 31.7689 7.39098e-05 32.5529 7.39098e-05C33.3369 7.39098e-05 34.0489 0.192074 34.6889 0.576074C35.3289 0.944074 35.8329 1.45607 36.2009 2.11207C36.5849 2.76807 36.7769 3.50407 36.7769 4.32007C36.7769 5.13607 36.5849 5.87207 36.2009 6.52807C35.8329 7.18407 35.3289 7.70407 34.6889 8.08807C34.0489 8.45607 33.3369 8.64007 32.5529 8.64007ZM32.5529 7.10407C33.3209 7.10407 33.9369 6.84007 34.4009 6.31207C34.8649 5.78407 35.0969 5.12007 35.0969 4.32007C35.0969 3.52007 34.8649 2.85607 34.4009 2.32807C33.9369 1.80007 33.3209 1.53607 32.5529 1.53607C31.7849 1.53607 31.1689 1.80007 30.7049 2.32807C30.2409 2.85607 30.0089 3.52007 30.0089 4.32007C30.0089 5.12007 30.2409 5.78407 30.7049 6.31207C31.1689 6.84007 31.7849 7.10407 32.5529 7.10407ZM43.5934 18.1909C42.0619 18.1909 40.872 17.6566 40.0236 16.5878C39.1752 15.5191 38.751 13.9876 38.751 11.9933C38.751 9.96601 39.1752 8.40146 40.0236 7.29967C40.872 6.19787 42.0619 5.64697 43.5934 5.64697C44.5851 5.64697 45.4279 5.87835 46.1221 6.3411C46.8162 6.79284 47.3561 7.4429 47.7417 8.29128L46.6179 8.96889C46.3534 8.31883 45.9623 7.812 45.4445 7.44841C44.9376 7.0738 44.3206 6.88649 43.5934 6.88649C42.5467 6.88649 41.7259 7.26661 41.1309 8.02685C40.536 8.78709 40.2385 9.81176 40.2385 11.1009V12.8527C40.2385 14.1418 40.5304 15.15 41.1144 15.8772C41.7094 16.5933 42.5357 16.9514 43.5934 16.9514C44.3537 16.9514 44.9982 16.7586 45.5271 16.373C46.056 15.9763 46.4526 15.4309 46.717 14.7368L47.8243 15.4309C47.4497 16.3013 46.8988 16.9789 46.1716 17.4637C45.4445 17.9485 44.5851 18.1909 43.5934 18.1909Z" fill="white"/>
</svg>
