<svg width="34" height="34" viewBox="0 0 34 34" fill="none" xmlns="http://www.w3.org/2000/svg">
<path d="M27.5448 13.7724C27.1546 13.7724 26.8277 13.6401 26.5642 13.3757C26.3007 13.1113 26.1685 12.7844 26.1676 12.3951C26.1667 12.0058 26.2989 11.6789 26.5642 11.4145C26.8296 11.1501 27.1564 11.0179 27.5448 11.0179C27.9332 11.0179 28.2605 11.1501 28.5268 11.4145C28.7931 11.6789 28.9248 12.0058 28.9221 12.3951C28.9193 12.7844 28.7871 13.1117 28.5254 13.3771C28.2637 13.6424 27.9369 13.7742 27.5448 13.7724ZM13.7724 30.2993V25.3412L10.1915 28.9221L8.26338 26.9939L13.7724 21.4849V19.2813H11.5688L6.05978 24.7903L4.13164 22.8622L7.71248 19.2813H2.75439V16.5268H7.71248L4.13164 12.946L6.05978 11.0179L11.5688 16.5268H13.7724V14.3233L8.26338 8.81428L10.1915 6.88613L13.7724 10.467V5.50889H16.5268V10.467L20.1077 6.88613L22.0358 8.81428L16.5268 14.3233V16.5268H27.5448V19.2813H22.5867L26.1676 22.8622L24.2394 24.7903L18.7304 19.2813H16.5268V21.4849L22.0358 26.9939L20.1077 28.9221L16.5268 25.3412V30.2993H13.7724ZM26.1676 9.64062V2.75439H28.9221V9.64062H26.1676Z" fill="white"/>
</svg>
