<svg width="185" height="45" viewBox="0 0 185 45" fill="none" xmlns="http://www.w3.org/2000/svg">
<rect x="0.304054" y="0.304054" width="183.649" height="44.3919" rx="17.9392" stroke="black" stroke-width="0.608108"/>
<path d="M20.1093 15.0192H21.9993V22.7154C21.9993 23.8392 22.2093 24.6678 22.6293 25.2014C23.0493 25.7349 23.7474 26.0016 24.7236 26.0016C25.7112 26.0016 26.415 25.7349 26.835 25.2014C27.2663 24.6565 27.482 23.8278 27.482 22.7154V15.0192H29.372V22.4089C29.372 23.6462 29.2187 24.6565 28.9123 25.4397C28.6058 26.2116 28.112 26.7849 27.4309 27.1595C26.7612 27.5341 25.8587 27.7214 24.7236 27.7214C23.5998 27.7214 22.6974 27.5341 22.0163 27.1595C21.3466 26.7849 20.8585 26.2116 20.552 25.4397C20.2568 24.6565 20.1093 23.6462 20.1093 22.4089V15.0192ZM32.3196 31.0757V18.2203H34.1756V19.7357H34.2437C34.448 19.1795 34.7772 18.7538 35.2313 18.4586C35.6967 18.1522 36.2472 17.9989 36.8829 17.9989C38.0407 17.9989 38.9431 18.4303 39.5902 19.293C40.2485 20.1443 40.5777 21.3305 40.5777 22.8516C40.5777 24.3841 40.2542 25.5816 39.6072 26.4443C38.9602 27.2957 38.0521 27.7214 36.8829 27.7214C36.2585 27.7214 35.7194 27.5681 35.2653 27.2616C34.8113 26.9551 34.4707 26.5295 34.2437 25.9846H34.1756V31.0757H32.3196ZM36.321 26.1549C37.0134 26.1549 37.5696 25.9278 37.9896 25.4738C38.4096 25.0084 38.6196 24.3954 38.6196 23.6349V22.0684C38.6196 21.3192 38.4096 20.7176 37.9896 20.2635C37.5696 19.8095 37.0134 19.5824 36.321 19.5824C35.708 19.5824 35.1972 19.7357 34.7885 20.0422C34.3799 20.3486 34.1756 20.7459 34.1756 21.2341V24.4181C34.1756 24.9516 34.3742 25.3773 34.7715 25.6951C35.1802 26.0016 35.6967 26.1549 36.321 26.1549ZM49.6506 27.5C49.0149 27.5 48.5268 27.3297 48.1862 26.9892C47.857 26.6373 47.6925 26.1549 47.6925 25.5419V19.7357H46.2281V18.2203H47.0284C47.3349 18.2203 47.5506 18.1522 47.6754 18.0159C47.8003 17.8797 47.8627 17.6527 47.8627 17.3349V15.6662H49.5484V18.2203H51.4895V19.7357H49.5484V25.9846H51.3533V27.5H49.6506ZM57.199 27.7214C56.3476 27.7214 55.5984 27.5227 54.9514 27.1254C54.3157 26.7281 53.8219 26.1662 53.47 25.4397C53.1295 24.7019 52.9592 23.8392 52.9592 22.8516C52.9592 21.8754 53.1295 21.0241 53.47 20.2976C53.8219 19.5597 54.3157 18.9922 54.9514 18.5949C55.5984 18.1976 56.3476 17.9989 57.199 17.9989C58.0503 17.9989 58.7938 18.1976 59.4295 18.5949C60.0765 18.9922 60.576 19.5597 60.9279 20.2976C61.2798 21.0241 61.4557 21.8754 61.4557 22.8516C61.4557 23.8392 61.2798 24.7019 60.9279 25.4397C60.576 26.1662 60.0765 26.7281 59.4295 27.1254C58.7938 27.5227 58.0503 27.7214 57.199 27.7214ZM57.199 26.1719C57.9027 26.1719 58.459 25.9562 58.8676 25.5249C59.2876 25.0822 59.4976 24.4522 59.4976 23.6349V22.0854C59.4976 21.2681 59.2876 20.6438 58.8676 20.2124C58.459 19.7697 57.9027 19.5484 57.199 19.5484C56.4952 19.5484 55.939 19.7697 55.5303 20.2124C55.1217 20.6438 54.9173 21.2681 54.9173 22.0854V23.6349C54.9173 24.4522 55.1217 25.0822 55.5303 25.5249C55.939 25.9562 56.4952 26.1719 57.199 26.1719ZM72.5675 23.0049H67.6467V21.1149H72.5675V23.0049ZM82.7878 15.0192V16.6878H77.237L76.9135 21.183H77.0497C77.3562 20.6495 77.7024 20.2522 78.0884 19.9911C78.4743 19.7186 78.9965 19.5824 79.6549 19.5824C80.37 19.5824 81.0114 19.7414 81.5789 20.0592C82.1465 20.3657 82.5949 20.8141 82.9241 21.4043C83.2532 21.9946 83.4178 22.687 83.4178 23.4816C83.4178 24.3103 83.2419 25.0481 82.89 25.6951C82.5381 26.3308 82.0273 26.8303 81.3576 27.1935C80.6992 27.5454 79.916 27.7214 79.0078 27.7214C77.9976 27.7214 77.1689 27.5227 76.5219 27.1254C75.8862 26.7168 75.347 26.1776 74.9043 25.5078L76.3005 24.4181C76.6524 24.9743 77.027 25.3943 77.4243 25.6781C77.8216 25.9619 78.3495 26.1038 79.0078 26.1038C79.7797 26.1038 80.37 25.8938 80.7787 25.4738C81.1873 25.0538 81.3916 24.4635 81.3916 23.703V23.5157C81.3916 22.7665 81.1873 22.1876 80.7787 21.7789C80.37 21.3703 79.7911 21.1659 79.0419 21.1659C78.5424 21.1659 78.1281 21.2568 77.7989 21.4384C77.4697 21.62 77.1689 21.8697 76.8965 22.1876L75.313 21.9492L75.7727 15.0192H82.7878ZM89.8579 27.7214C88.3482 27.7214 87.2244 27.1708 86.4865 26.0697C85.7487 24.9573 85.3798 23.3568 85.3798 21.2681C85.3798 19.1795 85.7487 17.5789 86.4865 16.4665C87.2244 15.3541 88.3482 14.7978 89.8579 14.7978C91.3676 14.7978 92.4914 15.3541 93.2292 16.4665C93.9671 17.5789 94.336 19.1795 94.336 21.2681C94.336 23.3568 93.9671 24.9573 93.2292 26.0697C92.4914 27.1708 91.3676 27.7214 89.8579 27.7214ZM89.8579 26.0868C90.6979 26.0868 91.3109 25.7576 91.6968 25.0992C92.0941 24.4408 92.2928 23.5157 92.2928 22.3238V20.1954C92.2928 19.0035 92.0941 18.0784 91.6968 17.42C91.3109 16.7616 90.6979 16.4324 89.8579 16.4324C89.0179 16.4324 88.3992 16.7616 88.0019 17.42C87.616 18.0784 87.423 19.0035 87.423 20.1954V22.3238C87.423 23.5157 87.616 24.4408 88.0019 25.0992C88.3992 25.7576 89.0179 26.0868 89.8579 26.0868ZM104.069 27.7214C102.911 27.7214 102.009 27.29 101.362 26.4273C100.715 25.5646 100.391 24.3727 100.391 22.8516C100.391 21.3305 100.715 20.1443 101.362 19.293C102.009 18.4303 102.911 17.9989 104.069 17.9989C104.705 17.9989 105.255 18.1522 105.721 18.4586C106.186 18.7538 106.515 19.1795 106.708 19.7357H106.793V14.27H108.649V27.5H106.793V25.9846H106.725C106.498 26.5295 106.152 26.9551 105.686 27.2616C105.232 27.5681 104.693 27.7214 104.069 27.7214ZM104.648 26.1549C105.261 26.1549 105.772 26.0016 106.18 25.6951C106.589 25.3773 106.793 24.9516 106.793 24.4181V21.2341C106.793 20.7459 106.583 20.3486 106.163 20.0422C105.755 19.7357 105.249 19.5824 104.648 19.5824C103.955 19.5824 103.399 19.8095 102.979 20.2635C102.559 20.7176 102.349 21.3192 102.349 22.0684V23.6349C102.349 24.3954 102.559 25.0084 102.979 25.4738C103.399 25.9278 103.955 26.1549 104.648 26.1549ZM115.161 27.7214C114.299 27.7214 113.544 27.5227 112.897 27.1254C112.261 26.7281 111.767 26.1605 111.415 25.4227C111.075 24.6849 110.905 23.8278 110.905 22.8516C110.905 21.8754 111.075 21.0241 111.415 20.2976C111.756 19.5711 112.244 19.0092 112.88 18.6119C113.515 18.2146 114.265 18.0159 115.127 18.0159C116.001 18.0159 116.745 18.2146 117.358 18.6119C117.971 19.0092 118.436 19.5597 118.754 20.2635C119.072 20.9559 119.231 21.7449 119.231 22.6303V23.3114H112.829V23.6349C112.829 24.4068 113.044 25.0254 113.476 25.4908C113.918 25.9562 114.537 26.1889 115.332 26.1889C116.41 26.1889 117.239 25.7065 117.818 24.7416L118.907 25.7973C118.567 26.3876 118.067 26.8586 117.409 27.2105C116.762 27.5511 116.013 27.7214 115.161 27.7214ZM112.829 22.0854H117.273V21.9151C117.273 21.1659 117.08 20.57 116.694 20.1273C116.308 19.6846 115.791 19.4632 115.144 19.4632C114.463 19.4632 113.907 19.6959 113.476 20.1614C113.044 20.6268 112.829 21.2284 112.829 21.9662V22.0854ZM124.89 31.297C123.415 31.297 122.342 31.1041 121.672 30.7181C121.003 30.3435 120.668 29.7873 120.668 29.0495C120.668 28.5614 120.804 28.1641 121.076 27.8576C121.36 27.5624 121.752 27.3581 122.251 27.2446V27.0573C121.922 26.9438 121.667 26.7678 121.485 26.5295C121.315 26.2797 121.23 25.9789 121.23 25.627C121.23 24.8097 121.78 24.2762 122.881 24.0265V23.9414C122.336 23.6916 121.916 23.3284 121.621 22.8516C121.326 22.3635 121.179 21.8016 121.179 21.1659C121.179 20.2124 121.502 19.4519 122.149 18.8843C122.796 18.3054 123.693 18.0159 124.839 18.0159C125.52 18.0159 126.088 18.1124 126.542 18.3054V18.05C126.542 17.1986 126.934 16.773 127.717 16.773H129.147V18.2543H127.274V18.68C127.683 18.9638 127.995 19.3214 128.211 19.7527C128.426 20.1727 128.534 20.6438 128.534 21.1659C128.534 22.1195 128.205 22.8857 127.547 23.4646C126.9 24.0435 126.003 24.333 124.856 24.333C124.425 24.333 124.022 24.2819 123.648 24.1797C123.035 24.4181 122.728 24.7359 122.728 25.1332C122.728 25.383 122.836 25.5646 123.052 25.6781C123.279 25.7803 123.608 25.8314 124.039 25.8314H126.321C127.422 25.8314 128.239 26.0527 128.773 26.4954C129.306 26.9381 129.573 27.5681 129.573 28.3854C129.573 29.3616 129.193 30.0881 128.432 30.5649C127.683 31.053 126.502 31.297 124.89 31.297ZM124.856 23.0049C125.447 23.0049 125.901 22.8686 126.219 22.5962C126.536 22.3124 126.695 21.8981 126.695 21.3532V20.9786C126.695 20.4451 126.536 20.0422 126.219 19.7697C125.901 19.4859 125.447 19.3441 124.856 19.3441C124.266 19.3441 123.806 19.4859 123.477 19.7697C123.159 20.0422 123 20.4451 123 20.9786V21.3532C123 21.8981 123.159 22.3124 123.477 22.5962C123.795 22.8686 124.255 23.0049 124.856 23.0049ZM125.486 29.9519C127.053 29.9519 127.836 29.4978 127.836 28.5897C127.836 28.2265 127.694 27.9484 127.41 27.7554C127.138 27.5738 126.69 27.483 126.065 27.483H122.949C122.473 27.7327 122.234 28.113 122.234 28.6238C122.234 29.5092 122.915 29.9519 124.278 29.9519H125.486ZM131.136 27.5V18.2203H132.992V20.0422H133.077C133.225 19.52 133.514 19.0886 133.945 18.7481C134.377 18.3962 134.939 18.2203 135.631 18.2203H136.176V20.0081H135.393C134.621 20.0081 134.025 20.1386 133.605 20.3997C133.196 20.6608 132.992 21.0354 132.992 21.5235V27.5H131.136ZM141.503 27.7214C140.641 27.7214 139.886 27.5227 139.239 27.1254C138.603 26.7281 138.109 26.1605 137.757 25.4227C137.417 24.6849 137.246 23.8278 137.246 22.8516C137.246 21.8754 137.417 21.0241 137.757 20.2976C138.098 19.5711 138.586 19.0092 139.222 18.6119C139.857 18.2146 140.606 18.0159 141.469 18.0159C142.343 18.0159 143.087 18.2146 143.7 18.6119C144.313 19.0092 144.778 19.5597 145.096 20.2635C145.414 20.9559 145.573 21.7449 145.573 22.6303V23.3114H139.171V23.6349C139.171 24.4068 139.386 25.0254 139.818 25.4908C140.26 25.9562 140.879 26.1889 141.674 26.1889C142.752 26.1889 143.581 25.7065 144.159 24.7416L145.249 25.7973C144.909 26.3876 144.409 26.8586 143.751 27.2105C143.104 27.5511 142.355 27.7214 141.503 27.7214ZM139.171 22.0854H143.615V21.9151C143.615 21.1659 143.422 20.57 143.036 20.1273C142.65 19.6846 142.133 19.4632 141.486 19.4632C140.805 19.4632 140.249 19.6959 139.818 20.1614C139.386 20.6268 139.171 21.2284 139.171 21.9662V22.0854ZM151.437 27.7214C150.574 27.7214 149.819 27.5227 149.172 27.1254C148.536 26.7281 148.043 26.1605 147.691 25.4227C147.35 24.6849 147.18 23.8278 147.18 22.8516C147.18 21.8754 147.35 21.0241 147.691 20.2976C148.031 19.5711 148.519 19.0092 149.155 18.6119C149.791 18.2146 150.54 18.0159 151.403 18.0159C152.277 18.0159 153.02 18.2146 153.633 18.6119C154.246 19.0092 154.712 19.5597 155.029 20.2635C155.347 20.9559 155.506 21.7449 155.506 22.6303V23.3114H149.104V23.6349C149.104 24.4068 149.32 25.0254 149.751 25.4908C150.194 25.9562 150.812 26.1889 151.607 26.1889C152.685 26.1889 153.514 25.7065 154.093 24.7416L155.183 25.7973C154.842 26.3876 154.343 26.8586 153.684 27.2105C153.037 27.5511 152.288 27.7214 151.437 27.7214ZM149.104 22.0854H153.548V21.9151C153.548 21.1659 153.355 20.57 152.969 20.1273C152.583 19.6846 152.067 19.4632 151.42 19.4632C150.739 19.4632 150.182 19.6959 149.751 20.1614C149.32 20.6268 149.104 21.2284 149.104 21.9662V22.0854ZM160.672 27.7214C159.844 27.7214 159.123 27.5738 158.51 27.2786C157.908 26.9722 157.375 26.5351 156.909 25.9676L158.135 24.8608C158.85 25.7689 159.724 26.223 160.757 26.223C161.336 26.223 161.773 26.1095 162.068 25.8824C162.375 25.6554 162.528 25.3319 162.528 24.9119C162.528 24.5714 162.42 24.3046 162.205 24.1116C161.989 23.9073 161.631 23.7654 161.132 23.6859L160.281 23.5838C158.26 23.3114 157.25 22.3976 157.25 20.8424C157.25 19.957 157.562 19.2646 158.186 18.7651C158.822 18.2543 159.651 17.9989 160.672 17.9989C161.467 17.9989 162.125 18.1238 162.647 18.3735C163.181 18.6232 163.669 18.9922 164.112 19.4803L162.971 20.57C162.698 20.2522 162.364 19.9968 161.966 19.8038C161.58 19.5995 161.149 19.4973 160.672 19.4973C160.139 19.4973 159.73 19.6051 159.446 19.8208C159.174 20.0365 159.038 20.3316 159.038 20.7062C159.038 21.0695 159.157 21.3476 159.395 21.5405C159.634 21.7335 160.014 21.8754 160.536 21.9662L161.387 22.0684C162.386 22.2159 163.124 22.5111 163.601 22.9538C164.078 23.3965 164.316 23.9981 164.316 24.7586C164.316 25.6554 163.981 26.3762 163.311 26.9211C162.653 27.4546 161.773 27.7214 160.672 27.7214Z" fill="black"/>
</svg>
