<svg width="40" height="40" viewBox="0 0 40 40" fill="none" xmlns="http://www.w3.org/2000/svg">
<path d="M25 5.83301H15C9.93743 5.83301 5.83337 9.93706 5.83337 14.9997V24.9997C5.83337 30.0623 9.93743 34.1663 15 34.1663H25C30.0627 34.1663 34.1667 30.0623 34.1667 24.9997V14.9997C34.1667 9.93706 30.0627 5.83301 25 5.83301Z" stroke="black" stroke-width="2" stroke-linecap="round" stroke-linejoin="round"/>
<path d="M20 26.0093C23.3192 26.0093 26.01 23.3185 26.01 19.9993C26.01 16.68 23.3192 13.9893 20 13.9893C16.6808 13.9893 13.99 16.68 13.99 19.9993C13.99 23.3185 16.6808 26.0093 20 26.0093Z" stroke="black" stroke-width="2" stroke-linecap="round" stroke-linejoin="round"/>
<path d="M28.1569 11.126C28.5526 11.126 28.8737 11.447 28.8737 11.8428C28.8736 12.2385 28.5526 12.5595 28.1569 12.5596C27.7611 12.5596 27.4401 12.2385 27.4401 11.8428C27.4401 11.447 27.7611 11.126 28.1569 11.126Z" fill="black" stroke="black" stroke-width="2"/>
</svg>
