<svg width="40" height="40" viewBox="0 0 40 40" fill="none" xmlns="http://www.w3.org/2000/svg">
<path d="M26.6667 13.333C29.3189 13.333 31.8624 14.3866 33.7378 16.2619C35.6131 18.1373 36.6667 20.6808 36.6667 23.333V34.9997H30V23.333C30 22.449 29.6488 21.6011 29.0237 20.976C28.3986 20.3509 27.5508 19.9997 26.6667 19.9997C25.7827 19.9997 24.9348 20.3509 24.3097 20.976C23.6846 21.6011 23.3334 22.449 23.3334 23.333V34.9997H16.6667V23.333C16.6667 20.6808 17.7203 18.1373 19.5956 16.2619C21.471 14.3866 24.0145 13.333 26.6667 13.333ZM3.33337 14.9997H10V34.9997H3.33337V14.9997Z" stroke="black" stroke-width="2" stroke-linecap="round" stroke-linejoin="round"/>
<path d="M6.66671 9.99967C8.50766 9.99967 10 8.50729 10 6.66634C10 4.82539 8.50766 3.33301 6.66671 3.33301C4.82576 3.33301 3.33337 4.82539 3.33337 6.66634C3.33337 8.50729 4.82576 9.99967 6.66671 9.99967Z" stroke="black" stroke-width="2" stroke-linecap="round" stroke-linejoin="round"/>
</svg>
