<svg width="23" height="23" viewBox="0 0 23 23" fill="none" xmlns="http://www.w3.org/2000/svg">
<g clip-path="url(#clip0_863_1276)">
<path d="M20.8438 0.539146H2.15625C1.73224 0.53483 1.32384 0.698896 1.02066 0.995341C0.717476 1.29179 0.544275 1.6964 0.539062 2.1204V20.8834C0.545218 21.3067 0.718833 21.7104 1.02191 22.0061C1.32499 22.3018 1.73286 22.4653 2.15625 22.461H20.8438C21.2678 22.4644 21.6759 22.2998 21.9789 22.0031C22.282 21.7065 22.4553 21.302 22.4609 20.878V2.11501C22.4534 1.69225 22.2793 1.28957 21.9764 0.994484C21.6736 0.699399 21.2666 0.535764 20.8438 0.539146Z" fill="#0076B2"/>
<path d="M3.78414 8.75586H7.03828V19.2262H3.78414V8.75586ZM5.41211 3.54492C5.78534 3.54492 6.15019 3.65562 6.4605 3.86302C6.77081 4.07041 7.01263 4.36518 7.15538 4.71004C7.29813 5.0549 7.33539 5.43435 7.26244 5.80038C7.1895 6.16642 7.00963 6.5026 6.74558 6.76639C6.48154 7.03018 6.14519 7.20973 5.77909 7.28233C5.41298 7.35492 5.03357 7.3173 4.68885 7.17422C4.34413 7.03115 4.04959 6.78904 3.84249 6.47854C3.63539 6.16803 3.52504 5.80308 3.52539 5.42984C3.52587 4.92977 3.72486 4.45033 4.07863 4.09689C4.43241 3.74345 4.91203 3.54492 5.41211 3.54492ZM9.07953 8.75586H12.1989V10.1934H12.242C12.6769 9.37039 13.737 8.5025 15.3201 8.5025C18.6155 8.49531 19.2265 10.6641 19.2265 13.4762V19.2262H15.9723V14.1321C15.9723 12.9192 15.9508 11.3577 14.2815 11.3577C12.6122 11.3577 12.3283 12.6802 12.3283 14.053V19.2262H9.07953V8.75586Z" fill="white"/>
</g>
<defs>
<clipPath id="clip0_863_1276">
<rect width="23" height="23" fill="white"/>
</clipPath>
</defs>
</svg>
