<svg width="47" height="56" viewBox="0 0 47 56" fill="none" xmlns="http://www.w3.org/2000/svg">
<path d="M2.6219 12.8997L0 9.75346L0.131095 9.49127L16.2558 0C16.282 5.87305 16.2295 11.7461 16.2558 17.5929C16.3082 25.5635 16.4655 33.6652 16.518 41.662C16.5442 46.2241 16.4393 51.0746 16.4655 55.6367H2.64812C2.64812 55.6105 2.64812 12.8997 2.64812 12.8997H2.6219Z" fill="black"/>
<path d="M33.0359 13.1095C37.7816 12.4278 41.3736 16.9112 39.7218 21.3685C39.0925 23.1251 37.5456 24.5934 35.7365 25.0916C35.317 25.1964 34.5828 25.3537 34.1895 25.38C34.1371 25.38 33.1408 25.2751 33.0097 25.2489C30.6238 24.8294 28.5263 22.7056 28.1067 20.3459C27.5299 17.1734 29.7061 13.5814 33.0359 13.1095Z" fill="black"/>
<path d="M45.857 55.6105L30.4665 55.558L22.155 39.3547C21.7618 39.2498 21.7093 39.5382 21.4996 39.6693C20.0837 40.587 18.6679 41.5309 17.3045 42.5534L16.518 42.9467L24.6983 27.5824L46.7222 55.6105H45.857Z" fill="black"/>
</svg>
