<svg width="34" height="34" viewBox="0 0 34 34" fill="none" xmlns="http://www.w3.org/2000/svg">
<path d="M19.2125 30.1616C18.8682 30.3452 18.5183 30.3741 18.163 30.2483C17.8077 30.1226 17.5377 29.8871 17.3532 29.5418L15.2873 25.4101C15.1037 25.0658 15.0752 24.716 15.2019 24.3606C15.3286 24.0053 15.5637 23.7354 15.9071 23.5508C16.2505 23.3663 16.6008 23.3378 16.9579 23.4654C17.3151 23.593 17.5846 23.8281 17.7664 24.1706L19.8322 28.3023C20.0159 28.6466 20.0448 28.9969 19.919 29.3531C19.7932 29.7094 19.5577 29.9789 19.2125 30.1616ZM27.476 30.1616C27.1316 30.3452 26.7818 30.3741 26.4265 30.2483C26.0712 30.1226 25.8012 29.8871 25.6167 29.5418L23.5508 25.4101C23.3672 25.0658 23.3387 24.716 23.4654 24.3606C23.5921 24.0053 23.8272 23.7354 24.1706 23.5508C24.514 23.3663 24.8642 23.3378 25.2214 23.4654C25.5786 23.593 25.848 23.8281 26.0298 24.1706L28.0957 28.3023C28.2793 28.6466 28.3083 28.9969 28.1825 29.3531C28.0567 29.7094 27.8212 29.9789 27.476 30.1616ZM10.949 30.1616C10.6047 30.3452 10.2549 30.3741 9.89954 30.2483C9.54422 30.1226 9.27427 29.8871 9.08972 29.5418L7.02386 25.4101C6.84022 25.0658 6.81176 24.716 6.93847 24.3606C7.06517 24.0053 7.30022 23.7354 7.64362 23.5508C7.98701 23.3663 8.33729 23.3378 8.69445 23.4654C9.05162 23.593 9.3211 23.8281 9.5029 24.1706L11.5688 28.3023C11.7524 28.6466 11.7813 28.9969 11.6555 29.3531C11.5297 29.7094 11.2942 29.9789 10.949 30.1616ZM10.3292 22.0358C8.24042 22.0358 6.45597 21.2958 4.97589 19.8157C3.49581 18.3356 2.75531 16.5507 2.75439 14.461C2.75439 12.5558 3.38563 10.8916 4.64811 9.46847C5.91058 8.04531 7.47146 7.20749 9.33074 6.955C10.0653 5.64661 11.0697 4.61919 12.3442 3.87272C13.6186 3.12625 15.0128 2.75348 16.5268 2.7544C18.5927 2.7544 20.3891 3.41456 21.916 4.73488C23.4429 6.05519 24.3666 7.70192 24.687 9.67506C26.2709 9.81278 27.6022 10.467 28.681 11.6376C29.7599 12.8083 30.2993 14.2085 30.2993 15.8382C30.2993 17.5598 29.697 19.0233 28.4924 20.2289C27.2877 21.4344 25.8242 22.0368 24.1017 22.0358H10.3292ZM10.3292 19.2813H24.1017C25.0658 19.2813 25.8806 18.9485 26.5463 18.2828C27.212 17.6172 27.5448 16.8023 27.5448 15.8382C27.5448 14.8742 27.212 14.0593 26.5463 13.3936C25.8806 12.728 25.0658 12.3951 24.1017 12.3951H22.0358V11.0179C22.0358 9.5029 21.4964 8.20599 20.4176 7.12715C19.3387 6.04831 18.0418 5.50889 16.5268 5.50889C15.4251 5.50889 14.421 5.80729 13.5148 6.4041C12.6086 7.0009 11.9255 7.8043 11.4655 8.81428L11.1212 9.64062H10.2604C8.952 9.68653 7.83322 10.1745 6.90404 11.1046C5.97485 12.0347 5.5098 13.1535 5.50889 14.461C5.50889 15.7923 5.97944 16.9285 6.92056 17.8697C7.86168 18.8108 8.99791 19.2813 10.3292 19.2813Z" fill="white"/>
</svg>
