<svg width="48" height="48" viewBox="0 0 48 48" fill="none" xmlns="http://www.w3.org/2000/svg">
<path d="M27.9 43.8C27.4 44.0667 26.892 44.1087 26.376 43.926C25.86 43.7433 25.468 43.4013 25.2 42.9L22.2 36.9C21.9333 36.4 21.892 35.892 22.076 35.376C22.26 34.86 22.6013 34.468 23.1 34.2C23.5987 33.932 24.1073 33.8907 24.626 34.076C25.1447 34.2613 25.536 34.6027 25.8 35.1L28.8 41.1C29.0667 41.6 29.1087 42.1087 28.926 42.626C28.7433 43.1433 28.4013 43.5347 27.9 43.8ZM39.9 43.8C39.4 44.0667 38.892 44.1087 38.376 43.926C37.86 43.7433 37.468 43.4013 37.2 42.9L34.2 36.9C33.9333 36.4 33.892 35.892 34.076 35.376C34.26 34.86 34.6013 34.468 35.1 34.2C35.5987 33.932 36.1073 33.8907 36.626 34.076C37.1447 34.2613 37.536 34.6027 37.8 35.1L40.8 41.1C41.0667 41.6 41.1087 42.1087 40.926 42.626C40.7433 43.1433 40.4013 43.5347 39.9 43.8ZM15.9 43.8C15.4 44.0667 14.892 44.1087 14.376 43.926C13.86 43.7433 13.468 43.4013 13.2 42.9L10.2 36.9C9.93333 36.4 9.892 35.892 10.076 35.376C10.26 34.86 10.6013 34.468 11.1 34.2C11.5987 33.932 12.1073 33.8907 12.626 34.076C13.1447 34.2613 13.536 34.6027 13.8 35.1L16.8 41.1C17.0667 41.6 17.1087 42.1087 16.926 42.626C16.7433 43.1433 16.4013 43.5347 15.9 43.8ZM15 32C11.9667 32 9.37533 30.9253 7.226 28.776C5.07667 26.6267 4.00133 24.0347 4 21C4 18.2333 4.91667 15.8167 6.75 13.75C8.58333 11.6833 10.85 10.4667 13.55 10.1C14.6167 8.2 16.0753 6.708 17.926 5.624C19.7767 4.54 21.8013 3.99867 24 4C27 4 29.6087 4.95867 31.826 6.876C34.0433 8.79334 35.3847 11.1847 35.85 14.05C38.15 14.25 40.0833 15.2 41.65 16.9C43.2167 18.6 44 20.6333 44 23C44 25.5 43.1253 27.6253 41.376 29.376C39.6267 31.1267 37.5013 32.0013 35 32H15ZM15 28H35C36.4 28 37.5833 27.5167 38.55 26.55C39.5167 25.5833 40 24.4 40 23C40 21.6 39.5167 20.4167 38.55 19.45C37.5833 18.4833 36.4 18 35 18H32V16C32 13.8 31.2167 11.9167 29.65 10.35C28.0833 8.78334 26.2 8 24 8C22.4 8 20.942 8.43334 19.626 9.3C18.31 10.1667 17.318 11.3333 16.65 12.8L16.15 14H14.9C13 14.0667 11.3753 14.7753 10.026 16.126C8.67667 17.4767 8.00133 19.1013 8 21C8 22.9333 8.68333 24.5833 10.05 25.95C11.4167 27.3167 13.0667 28 15 28Z" fill="white"/>
</svg>
