<svg width="33" height="39" viewBox="0 0 33 39" fill="none" xmlns="http://www.w3.org/2000/svg">
<path d="M1.85185 9.04241L0 6.83695L0.0925926 6.65316L11.4815 0C11.5 4.11687 11.463 8.23374 11.4815 12.3322C11.5185 17.9194 11.6296 23.5985 11.6667 29.2041C11.6852 32.402 11.6111 35.8021 11.6296 39H1.87037C1.87037 38.9816 1.87037 9.04241 1.87037 9.04241H1.85185Z" fill="black"/>
<path d="M23.3335 9.18939C26.6853 8.71154 29.2224 11.8543 28.0557 14.9787C27.6113 16.2101 26.5187 17.2393 25.2409 17.5885C24.9446 17.6621 24.4261 17.7723 24.1483 17.7907C24.1113 17.7907 23.4076 17.7172 23.315 17.6988C21.6298 17.4048 20.1483 15.9161 19.852 14.262C19.4446 12.0381 20.9816 9.52021 23.3335 9.18939Z" fill="#FF9900"/>
<path d="M32.3887 38.9816L21.5184 38.9449L15.648 27.5867C15.3702 27.5132 15.3332 27.7154 15.185 27.8073C14.185 28.4505 13.185 29.1122 12.2221 29.8289L11.6665 30.1046L17.4443 19.3346L32.9998 38.9816H32.3887Z" fill="black"/>
</svg>
