<svg width="16" height="16" viewBox="0 0 16 16" fill="none" xmlns="http://www.w3.org/2000/svg">
<path d="M5.33301 11.45V4.54997C5.33301 4.36108 5.39967 4.20264 5.53301 4.07464C5.66634 3.94664 5.8219 3.88286 5.99967 3.8833C6.05523 3.8833 6.11367 3.89153 6.17501 3.90797C6.23634 3.92441 6.29456 3.94953 6.34967 3.9833L11.783 7.4333C11.883 7.49997 11.9581 7.5833 12.0083 7.6833C12.0586 7.7833 12.0835 7.88886 12.083 7.99997C12.0826 8.11108 12.0577 8.21664 12.0083 8.31664C11.959 8.41664 11.8839 8.49997 11.783 8.56664L6.34967 12.0166C6.29412 12.05 6.2359 12.0751 6.17501 12.092C6.11412 12.1089 6.05567 12.1171 5.99967 12.1166C5.8219 12.1166 5.66634 12.0526 5.53301 11.9246C5.39967 11.7966 5.33301 11.6384 5.33301 11.45Z" fill="#FF9900"/>
</svg>
