<svg width="32" height="32" viewBox="0 0 32 32" fill="none" xmlns="http://www.w3.org/2000/svg">
<path d="M1.16809 26.7193C1.16809 24.7832 1.93723 22.9263 3.30631 21.5572C4.67539 20.1881 6.53227 19.419 8.46844 19.419H23.0691C25.0053 19.419 26.8622 20.1881 28.2313 21.5572C29.6003 22.9263 30.3695 24.7832 30.3695 26.7193C30.3695 27.6874 29.9849 28.6158 29.3004 29.3004C28.6158 29.9849 27.6874 30.3695 26.7193 30.3695H4.81826C3.85018 30.3695 2.92174 29.9849 2.2372 29.3004C1.55266 28.6158 1.16809 27.6874 1.16809 26.7193Z" stroke="black" stroke-width="2.33611" stroke-linejoin="round"/>
<path d="M15.7688 12.1186C18.7927 12.1186 21.2441 9.66722 21.2441 6.64332C21.2441 3.61942 18.7927 1.16806 15.7688 1.16806C12.7449 1.16806 10.2936 3.61942 10.2936 6.64332C10.2936 9.66722 12.7449 12.1186 15.7688 12.1186Z" stroke="black" stroke-width="2.33611"/>
</svg>
