<svg width="29" height="29" viewBox="0 0 29 29" fill="none" xmlns="http://www.w3.org/2000/svg">
<path d="M0.986328 23.9984C0.986328 22.2546 1.67903 20.5823 2.91205 19.3493C4.14506 18.1163 5.81739 17.4236 7.56114 17.4236H20.7108C22.4545 17.4236 24.1268 18.1163 25.3599 19.3493C26.5929 20.5823 27.2856 22.2546 27.2856 23.9984C27.2856 24.8703 26.9392 25.7064 26.3227 26.3229C25.7062 26.9394 24.87 27.2858 23.9982 27.2858H4.27373C3.40186 27.2858 2.56569 26.9394 1.94919 26.3229C1.33268 25.7064 0.986328 24.8703 0.986328 23.9984Z" stroke="white" stroke-width="1.97244" stroke-linejoin="round"/>
<path d="M14.1362 10.8485C16.8596 10.8485 19.0673 8.64081 19.0673 5.91744C19.0673 3.19406 16.8596 0.986328 14.1362 0.986328C11.4128 0.986328 9.20508 3.19406 9.20508 5.91744C9.20508 8.64081 11.4128 10.8485 14.1362 10.8485Z" stroke="white" stroke-width="1.97244"/>
</svg>
