<svg width="36" height="36" viewBox="0 0 36 36" fill="none" xmlns="http://www.w3.org/2000/svg">
<rect x="0.306257" y="0.306257" width="35.348" height="35.348" rx="17.674" stroke="white" stroke-width="0.612514"/>
<path d="M19.8358 9.76618C19.1452 8.55319 17.3003 8.55319 16.6109 9.76618L14.3488 13.7329C14.313 13.8027 14.2625 13.865 14.2005 13.916C14.1384 13.9671 14.0661 14.0057 13.9878 14.0297C13.9095 14.0536 13.8268 14.0624 13.7448 14.0554C13.6628 14.0485 13.5831 14.026 13.5106 13.9892C13.4381 13.9525 13.3742 13.9023 13.3228 13.8417C13.2714 13.7811 13.2336 13.7113 13.2116 13.6365C13.1896 13.5617 13.1838 13.4835 13.1947 13.4066C13.2057 13.3297 13.233 13.2557 13.2751 13.189L15.536 9.22005C16.6866 7.20106 19.7601 7.20106 20.9107 9.22005L23.3607 13.5225L23.7207 11.4874C23.7514 11.3407 23.8415 11.2111 23.972 11.1261C24.1024 11.041 24.2628 11.0071 24.4193 11.0317C24.5758 11.0562 24.7159 11.1372 24.8101 11.2574C24.9043 11.3777 24.945 11.5278 24.9237 11.6759L24.3137 15.1252C24.2991 15.2071 24.266 15.2851 24.2164 15.3537C24.1669 15.4224 24.1021 15.4801 24.0267 15.5229C23.9512 15.5658 23.8667 15.5927 23.7792 15.6018C23.6916 15.611 23.603 15.6021 23.5194 15.5759L19.8589 14.4262C19.7112 14.3738 19.5908 14.2696 19.5229 14.1354C19.4551 14.0011 19.445 13.8473 19.4949 13.7063C19.5448 13.5652 19.6508 13.4479 19.7905 13.3789C19.9303 13.3099 20.093 13.2946 20.2445 13.3362L22.2236 13.9571L19.8358 9.76618ZM24.7444 17.1327C24.6713 17.1671 24.6064 17.2149 24.5533 17.2734C24.5002 17.3319 24.4602 17.3998 24.4355 17.4732C24.4108 17.5465 24.402 17.6238 24.4096 17.7004C24.4171 17.777 24.441 17.8514 24.4796 17.9191L26.9565 22.2653C27.1064 22.5281 27.1813 22.823 27.174 23.1213C27.1667 23.4195 27.0775 23.7109 26.9149 23.9669C26.7524 24.223 26.5222 24.4349 26.2467 24.582C25.9713 24.7291 25.6601 24.8064 25.3435 24.8062H20.3043L21.7038 23.4874C21.8183 23.3797 21.8828 23.2334 21.8829 23.0808C21.883 22.9283 21.8188 22.7819 21.7044 22.674C21.59 22.566 21.4348 22.5053 21.2729 22.5052C21.111 22.5051 20.9557 22.5656 20.8412 22.6734L18.4009 24.9729C18.3441 25.0263 18.299 25.0898 18.2682 25.1596C18.2375 25.2295 18.2216 25.3043 18.2216 25.38C18.2216 25.4556 18.2375 25.5304 18.2682 25.6003C18.299 25.6701 18.3441 25.7336 18.4009 25.787L20.8412 28.0865C20.9557 28.1943 21.111 28.2548 21.2729 28.2547C21.4348 28.2546 21.59 28.1939 21.7044 28.0859C21.8188 27.978 21.883 27.8316 21.8829 27.6791C21.8828 27.5265 21.8183 27.3803 21.7038 27.2725L20.3055 25.956H25.3447C27.6508 25.956 29.1222 23.6369 28.0314 21.7214L25.5546 17.3753C25.4795 17.2435 25.353 17.1444 25.2017 17.0991C25.0504 17.0539 24.8864 17.0659 24.7444 17.1327ZM11.1008 24.8051H15.1712C15.333 24.8051 15.4881 24.8656 15.6025 24.9735C15.717 25.0813 15.7812 25.2275 15.7812 25.38C15.7812 25.5324 15.717 25.6786 15.6025 25.7865C15.4881 25.8943 15.333 25.9548 15.1712 25.9548H11.1008C8.79472 25.9548 7.32201 23.6358 8.41281 21.7203L11.0288 17.1293L8.65318 17.8766C8.57707 17.9005 8.49672 17.91 8.41671 17.9046C8.33671 17.8991 8.25862 17.8789 8.1869 17.8451C8.11518 17.8113 8.05124 17.7644 7.99872 17.7073C7.94621 17.6502 7.90615 17.5839 7.88083 17.5121C7.85551 17.4404 7.84544 17.3647 7.85117 17.2893C7.85691 17.2139 7.87835 17.1403 7.91426 17.0727C7.95018 17.0052 7.99987 16.9449 8.0605 16.8954C8.12113 16.8459 8.19151 16.8082 8.26762 16.7843L11.928 15.6346C12.0814 15.5865 12.2488 15.5978 12.3934 15.6659C12.538 15.734 12.6479 15.8534 12.6992 15.9979L13.9193 19.4472C13.9654 19.5904 13.9504 19.7449 13.8775 19.8778C13.8046 20.0108 13.6795 20.1117 13.5289 20.1591C13.3783 20.2066 13.214 20.1968 13.0709 20.132C12.9278 20.0671 12.8172 19.9522 12.7626 19.8117L12.0427 17.7789L9.48775 22.2641C9.3379 22.5269 9.26295 22.8218 9.27023 23.1201C9.27751 23.4184 9.36678 23.7098 9.52931 23.9658C9.69184 24.2218 9.92207 24.4337 10.1975 24.5808C10.473 24.7279 10.7842 24.8052 11.1008 24.8051Z" fill="white"/>
</svg>
