<svg width="214" height="255" viewBox="0 0 214 255" fill="none" xmlns="http://www.w3.org/2000/svg">
<path d="M12.009 59.0842L0 44.6734L0.600449 43.4725L74.4557 0C74.5758 26.9001 74.3356 53.8002 74.4557 80.5802C74.6959 117.088 75.4164 154.195 75.6566 190.823C75.7767 211.718 75.2963 233.935 75.4164 254.831H12.1291C12.1291 254.71 12.1291 59.0842 12.1291 59.0842H12.009Z" fill="white"/>
<path d="M151.313 60.0448C173.05 56.9224 189.502 77.4578 181.936 97.8731C179.054 105.919 171.969 112.644 163.683 114.926C161.761 115.406 158.399 116.127 156.597 116.247C156.357 116.247 151.794 115.766 151.193 115.646C140.265 113.725 130.658 103.998 128.736 93.1896C126.095 78.6587 136.062 62.2064 151.313 60.0448Z" fill="#FF9900"/>
<path d="M210.037 254.71L139.544 254.47L101.476 180.255C99.6747 179.774 99.4345 181.095 98.4738 181.696C91.9889 185.899 85.5041 190.222 79.2594 194.906L75.6567 196.707L113.125 126.334L214 254.71H210.037Z" fill="white"/>
</svg>
